<svg width="15" height="14" viewBox="0 0 15 14" fill="none" xmlns="http://www.w3.org/2000/svg">
<path d="M4.88616 9.78068C3.45243 8.34417 2.34984 6.61178 1.6555 4.70468C1.2735 3.66202 1.6235 2.51668 2.40883 1.73135L2.89483 1.24602C3.02549 1.11509 3.18068 1.01123 3.35153 0.940356C3.52238 0.869487 3.70553 0.833008 3.8905 0.833008C4.07546 0.833008 4.25861 0.869487 4.42946 0.940356C4.60031 1.01123 4.7555 1.11509 4.88616 1.24602L6.02416 2.38402C6.15508 2.51467 6.25895 2.66987 6.32982 2.84072C6.40069 3.01157 6.43717 3.19472 6.43717 3.37968C6.43717 3.56465 6.40069 3.7478 6.32982 3.91865C6.25895 4.08949 6.15508 4.24469 6.02416 4.37535L5.74416 4.65535C5.63209 4.7674 5.54318 4.90043 5.48252 5.04685C5.42187 5.19327 5.39065 5.3502 5.39065 5.50868C5.39065 5.66717 5.42187 5.8241 5.48252 5.97051C5.54318 6.11693 5.63209 6.24996 5.74416 6.36202L8.30416 8.92268C8.41622 9.03476 8.54925 9.12366 8.69566 9.18432C8.84208 9.24498 8.99901 9.2762 9.1575 9.2762C9.31598 9.2762 9.47291 9.24498 9.61933 9.18432C9.76574 9.12366 9.89878 9.03476 10.0108 8.92268L10.2915 8.64268C10.4222 8.51176 10.5773 8.40789 10.7482 8.33702C10.919 8.26615 11.1022 8.22967 11.2872 8.22967C11.4721 8.22967 11.6553 8.26615 11.8261 8.33702C11.997 8.40789 12.1522 8.51176 12.2828 8.64268L13.4208 9.78068C13.5518 9.91134 13.6556 10.0665 13.7265 10.2374C13.7974 10.4082 13.8338 10.5914 13.8338 10.7763C13.8338 10.9613 13.7974 11.1445 13.7265 11.3153C13.6556 11.4862 13.5518 11.6414 13.4208 11.772L12.9355 12.2573C12.1502 13.0433 11.0048 13.3933 9.96216 13.0113C8.05506 12.317 6.32267 11.2144 4.88616 9.78068Z" stroke="white" stroke-width="1.5" stroke-linejoin="round"/>
</svg>
