<svg width="16" height="16" viewBox="0 0 16 16" fill="none" xmlns="http://www.w3.org/2000/svg">
<path d="M13.5002 7.33331C13.5002 6.37665 13.4989 5.70928 13.4312 5.20571C13.3737 4.77754 13.2747 4.52535 13.1272 4.34568L13.0608 4.27277C12.8766 4.08834 12.6171 3.96812 12.1278 3.90232C11.6243 3.83463 10.9569 3.83331 10.0002 3.83331H8.00025C7.04358 3.83331 6.37621 3.83463 5.87264 3.90232C5.44447 3.95991 5.19228 4.05883 5.01262 4.20636L4.9397 4.27277C4.75527 4.45699 4.63505 4.71646 4.56926 5.20571C4.50156 5.70928 4.50025 6.37665 4.50025 7.33331V10.6666C4.50025 11.6233 4.50156 12.2907 4.56926 12.7943C4.63505 13.2835 4.75527 13.543 4.9397 13.7272L5.01262 13.7936C5.19228 13.9411 5.44447 14.0401 5.87264 14.0976C6.37621 14.1653 7.04358 14.1666 8.00025 14.1666H10.0002C10.9569 14.1666 11.6243 14.1653 12.1278 14.0976C12.6171 14.0318 12.8766 13.9116 13.0608 13.7272L13.1272 13.6543C13.2747 13.4746 13.3737 13.2224 13.4312 12.7943C13.4989 12.2907 13.5002 11.6233 13.5002 10.6666V7.33331ZM14.5002 10.6666C14.5002 11.5951 14.5015 12.342 14.4228 12.9277C14.3471 13.4903 14.1903 13.9698 13.8401 14.3581L13.7678 14.4342C13.3667 14.8357 12.8613 15.0085 12.2613 15.0892C11.6756 15.1679 10.9287 15.1666 10.0002 15.1666H8.00025C7.07177 15.1666 6.3249 15.1679 5.73918 15.0892C5.17654 15.0135 4.69709 14.8567 4.30884 14.5065L4.23267 14.4342C3.83124 14.0331 3.65841 13.5277 3.57772 12.9277C3.49896 12.342 3.50025 11.5951 3.50025 10.6666V7.33331C3.50025 6.40484 3.49896 5.65797 3.57772 5.07225C3.65841 4.47227 3.83124 3.96682 4.23267 3.56574L4.30884 3.49347C4.69709 3.14324 5.17654 2.98645 5.73918 2.91079C6.3249 2.83203 7.07177 2.83331 8.00025 2.83331H10.0002C10.9287 2.83331 11.6756 2.83203 12.2613 2.91079C12.8613 2.99148 13.3667 3.16431 13.7678 3.56574L13.8401 3.64191C14.1903 4.03016 14.3471 4.50961 14.4228 5.07225C14.5015 5.65797 14.5002 6.40484 14.5002 7.33331V10.6666Z" fill="#5C5C5C"/>
<path d="M1.50024 10.6666V6.66665C1.50024 5.42379 1.49927 4.44105 1.60246 3.67381C1.70758 2.89236 1.92895 2.25973 2.42798 1.76105C2.92694 1.26252 3.55984 1.04074 4.34139 0.935527C5.10852 0.832284 6.0908 0.833313 7.33358 0.833313H10.0002C10.6633 0.833313 11.299 1.09689 11.7678 1.56574C12.2367 2.03458 12.5002 2.67027 12.5002 3.33331H11.5002C11.5002 2.93549 11.3421 2.55407 11.0608 2.27277C10.7795 1.99146 10.3981 1.83331 10.0002 1.83331H7.33358C6.06268 1.83331 5.15981 1.83488 4.47485 1.92706C3.80436 2.01733 3.41737 2.18603 3.13501 2.46808C2.85285 2.75 2.68355 3.13656 2.59334 3.80727C2.5012 4.49236 2.50024 5.39551 2.50024 6.66665V10.6666C2.50024 11.0645 2.65839 11.4459 2.9397 11.7272C3.221 12.0085 3.60242 12.1666 4.00024 12.1666V13.1666C3.3372 13.1666 2.70151 12.9031 2.23267 12.4342C1.76383 11.9654 1.50024 11.3297 1.50024 10.6666Z" fill="#5C5C5C"/>
</svg>
